
<svg xmlns="http://www.w3.org/2000/svg" version="1.1" xmlns:xlink="http://www.w3.org/1999/xlink" preserveAspectRatio="none" x="0px" y="0px" width="1065px" height="1086px" viewBox="0 0 1065 1086">
<defs>
<g id="Layer16_0_FILL">
<path fill="#00CCCC" stroke="none" d="
M 261.75 399.25
Q 260.8 397.75 258.95 396.95 257.25 396.25 255.3 396.3 250.75 396.25 246.55 399 246.4 399.2 246.3 399.5 243.1 405.45 242.05 411.95 241.6 414.4 241.3 418.7 241.15 420.25 241.05 421.45 240.8 424.3 240.65 425.5 240.1 429.95 239 434.15 239.55 434 240.05 433.8 245.05 431.9 247.45 429.75 247.6 429.6 247.8 429.45 248.9 428.45 250 426.9 250.45 426.3 252.2 423.7
L 258.05 413.75
Q 261.7 408.15 262.35 404.15 262.8 401.25 261.75 399.25
M 240.05 380.85
Q 239 380.8 237.85 380.8 234.5 380.95 232.65 380.9 229.05 381.3 225.55 381.95 221.75 382.5 218.2 383.4 218.75 387.25 226.75 388.95 230.3 389.7 235.25 390 238.95 389.65 242.5 388.7 242.65 388.65 242.8 388.6 245.15 387.9 246.3 386.9 247.1 386.3 247.3 385.3 247.6 384.2 247.2 383.3 246.65 382.1 244.7 381.55 242.85 380.9 240.05 380.85
M 305.8 385
Q 300.2 387.4 295.65 391.45 291.15 395.4 287.2 401.25 284.15 405.85 280.85 412.7 277.15 420.5 275.35 426.6 272.95 434.35 272.9 441.2 277.2 440.25 282.05 437.65 285.1 436 290.45 432.4 296.75 428.3 300.1 425.55 300.2 425.4 300.35 425.25 305.4 420.9 308.1 416.2 311.5 410.85 313 401.5 314.1 394.1 313 389.35 312.25 386.3 310.4 383.9 310.2 383.7 310.05 383.45 307.9 384.1 305.8 385
M 355.35 327.45
Q 349.4 321.75 343.25 318.25 331.1 311.4 315.3 311.4 301.2 311.45 286.45 316.9 274.75 321.1 260 329.65 252.95 334 247.4 337.35 243.05 340 239.6 342.15 237 343.65 234.95 344.85 229.55 348.05 226.15 349.65 226 349.7 225.8 349.8 220.6 352.15 215.9 352.9 211.1 353.4 206.75 352.25 210.35 357 216.05 360.55 220.1 363.1 224.6 364.75 230.3 366.75 236.5 367.5 236.9 367.45 237.3 367.5 247.15 368.2 259.3 365.55 264.1 364.5 271.85 362.25 276 361 280.95 359.4 277.45 365.3 275 371.6 270.45 383 269.25 395.65 275.3 392 281.55 388.6 303.35 376.55 327.8 367.65
L 333.1 393.7
Q 336.6 386.85 346.8 381.35 347.65 380.9 355.5 376.95 360.9 374.2 364.1 372.1 371.7 366.85 376.5 358.5 378.65 354.7 380.05 350.8 373.6 338.75 359.2 329.6 357.4 328.5 355.35 327.45 Z"/>

<path fill="#009FC3" stroke="none" d="
M 346.8 381.35
Q 336.6 386.85 333.1 393.7
L 327.8 367.65
Q 303.35 376.55 281.55 388.6 275.3 392 269.25 395.65 270.45 383 275 371.6 277.45 365.3 280.95 359.4 276 361 271.85 362.25 264.1 364.5 259.3 365.55 247.15 368.2 237.3 367.5 236.9 367.45 236.5 367.5 230.3 366.75 224.6 364.75 220.1 363.1 216.05 360.55 210.35 357 206.75 352.25 206.2 352.1 205.65 351.95 200.4 350.25 197.4 346.25 203.25 364.45 222.6 373.05 223.6 373.5 224.7 373.9 229.2 375.6 233.75 376.45 232.3 377.15 230.9 377.85 228.6 378.9 226.7 379.75 226 380.1 225.35 380.4 222.05 381.85 220.35 382.55 219.2 383 218.2 383.4 221.75 382.5 225.55 381.95 229.05 381.3 232.65 380.9 234.5 380.95 237.85 380.8 239 380.8 240.05 380.85 242.85 380.9 244.7 381.55 246.65 382.1 247.2 383.3 247.6 384.2 247.3 385.3 247.1 386.3 246.3 386.9 245.15 387.9 242.8 388.6 242.65 388.65 242.5 388.7 238.95 389.65 235.25 390 230.3 389.7 226.75 388.95 218.75 387.25 218.2 383.4 217.05 383.8 216.1 384.2 212.4 385.5 209.35 386.25 210 391.25 219.25 393.55 224.2 394.65 228.45 395.35 231.35 395.8 233.9 396.05 240.35 396.9 245.15 396.5 246.55 396.4 247.85 396.1 248.1 396.1 248.4 396 247.75 397 247.15 398 246.85 398.5 246.55 399 250.75 396.25 255.3 396.3 257.25 396.25 258.95 396.95 260.8 397.75 261.75 399.25 262.8 401.25 262.35 404.15 261.7 408.15 258.05 413.75
L 252.2 423.7
Q 250.45 426.3 250 426.9 248.9 428.45 247.8 429.45 247.6 429.6 247.45 429.75 245.05 431.9 240.05 433.8 239.55 434 239 434.15 237.45 440.05 234.8 445.3 243.35 444.7 251.3 438 251.95 437.55 252.5 437.05
L 249.2 449.2
Q 248.65 451.45 247.85 453.25 246.8 455.3 246.95 456.25 251.85 454.45 255.95 451.75 254.95 458.4 255.35 465.7 256.05 477.45 260.75 493.75 263.4 503.15 269.75 522.2 275.1 539.35 276.6 551 278 561.95 277.4 578.85 276.3 605 276.3 606.8 276.15 641.55 291.2 659.55 300.5 670.65 315.05 673.75 322.15 675.2 328.4 674.1 331.95 671.9 335.35 668.65 346.5 658.1 350.1 642.7 352.85 631.15 352.35 613.4 351.15 593.5 351.25 583.6 351.45 566.3 355.7 545.85 358.45 532.75 364.3 512.8 366.1 496.3 368.5 479.85 373.85 441.7 381.35 403.9 384.65 387.75 385.25 379.6 386.15 365.9 382.25 355.8 381.35 353.2 380.05 350.8 378.65 354.7 376.5 358.5 371.7 366.85 364.1 372.1 360.9 374.2 355.5 376.95 347.65 380.9 346.8 381.35
M 295.65 391.45
Q 300.2 387.4 305.8 385 307.9 384.1 310.05 383.45 310.2 383.7 310.4 383.9 312.25 386.3 313 389.35 314.1 394.1 313 401.5 311.5 410.85 308.1 416.2 305.4 420.9 300.35 425.25 300.2 425.4 300.1 425.55 296.75 428.3 290.45 432.4 285.1 436 282.05 437.65 277.2 440.25 272.9 441.2 272.95 434.35 275.35 426.6 277.15 420.5 280.85 412.7 284.15 405.85 287.2 401.25 291.15 395.4 295.65 391.45 Z"/>
</g>

<g id="Layer15_0_FILL">
<path fill="#009FC3" stroke="none" d="
M 317.15 588.1
Q 306.9 584.95 297.4 586.7 284.5 589.1 272.4 600.45 264.8 607.55 253.15 623.3 241.95 638.35 233.3 645.8 229.35 649.2 225.3 651.7 217.4 656.55 209.25 657.75 206.05 659.75 203.35 662.3 197.85 667.45 195.8 673.8 192.25 685 199.25 698.05 204.3 707.35 215.8 718.95 225.35 728.5 230.85 733.2 239.55 740.65 247.65 744.95 257.25 750.1 267.3 751.3 278.2 752.65 287.4 749.05 295.8 745.75 303.5 737.8 308.9 732.2 315.9 721.95 331.4 698.85 343.55 674.3 349.9 661.8 352.5 652.6 356.1 640.25 354.55 629.7 353.25 620.4 347.85 611.8 342.8 603.65 334.9 597.45 326.65 591 317.15 588.1 Z"/>
</g>

<g id="Layer14_0_FILL">
<path fill="#00CCCC" stroke="none" d="
M 791.2 418.5
Q 790.45 414.35 789.75 411.9 788.15 405.6 784.3 399.95 784.15 399.7 783.95 399.45 779.5 397.15 775.15 397.6 773.1 397.7 771.5 398.6 769.65 399.6 768.95 401.15 768.1 403.25 768.85 406.15 769.85 410 774 415.25
L 780.85 424.5
Q 782.8 427.05 783.25 427.55 784.55 429 785.75 429.95 785.95 430 786.05 430.1 788.7 432.1 793.85 433.45 794.45 433.65 795 433.75 793.45 429.7 792.45 425.25 792.2 424.05 791.65 421.3 791.45 420.05 791.2 418.5
M 788.75 380.8
Q 785.95 381.1 784.25 381.95 782.25 382.6 781.9 383.95 781.5 384.8 781.95 385.85 782.25 386.85 783.15 387.4 784.35 388.3 786.75 388.75 786.9 388.75 787.15 388.85 790.7 389.45 794.4 389.35 799.35 388.6 802.8 387.55 810.55 385.15 810.85 381.25 807.15 380.65 803.35 380.45 799.75 380.15 796.15 380.1 794.25 380.35 790.95 380.55 789.8 380.65 788.75 380.8
M 680 328.35
Q 674.15 332.35 668.8 338.7 666.95 340 665.25 341.2 651.8 351.7 646.6 364.25 648.25 368.1 650.8 371.6 656.45 379.45 664.45 383.95 667.8 385.8 673.4 388 681.7 391.15 682.55 391.5 693.25 395.95 697.4 402.5
L 700.05 376.05
Q 725.35 382.6 748.15 392.45 754.7 395.25 761.05 398.35 758.65 385.8 753.05 374.95 750.05 368.9 745.95 363.3 751.1 364.5 755.35 365.25 763.3 366.8 768.05 367.4 780.5 368.85 790.15 367.15 790.6 367.05 791 367 797.2 365.8 802.55 363.2 806.9 361.1 810.7 358.2 816 354.1 819.2 349.15 814.9 350.7 810.05 350.6 805.4 350.3 800 348.5 799.8 348.4 799.65 348.35 796 347.05 790.4 344.45 788.2 343.45 785.45 342.15 781.9 340.45 777.25 338.25 771.45 335.35 764 331.7 748.5 324.65 736.45 321.55 721.2 317.6 707.15 318.9 691.5 320.35 680 328.35 Z"/>

<path fill="#009FC3" stroke="none" d="
M 664.45 383.95
Q 656.45 379.45 650.8 371.6 648.25 368.1 646.6 364.25 645.45 366.9 644.75 369.45 641.9 379.95 644.15 393.5 645.45 401.55 650.3 417.35 661.45 454.15 670.4 491.7 674.4 507.8 677.75 524.1 685.55 543.3 689.55 556.2 695.7 576.05 697.55 593.2 698.6 603.1 699.35 622.95 700.55 640.7 704.4 652 709.5 667 721.55 676.45 725.3 679.3 729.05 681.2 735.35 681.65 742.3 679.5 756.45 675.1 764.65 663.05 777.9 643.75 774.4 609.2 774.25 607.35 770.65 581.4 768.35 564.65 768.7 553.6 769.15 541.9 772.8 524.35 777.3 504.8 779 495.05 782.15 478.45 781.6 466.6 781.35 459.3 779.65 452.85 784.05 455.15 789.2 456.5 789.2 455.5 787.95 453.55 787 451.9 786.2 449.65
L 781.8 437.95
Q 782.4 438.35 783 438.8 791.6 444.6 800.15 444.45 797.1 439.5 795 433.75 794.45 433.65 793.85 433.45 788.7 432.1 786.05 430.1 785.95 430 785.75 429.95 784.55 429 783.25 427.55 782.8 427.05 780.85 424.5
L 774 415.25
Q 769.85 410 768.85 406.15 768.1 403.25 768.95 401.15 769.65 399.6 771.5 398.6 773.1 397.7 775.15 397.6 779.5 397.15 783.95 399.45 783.75 399 783.45 398.5 782.7 397.55 781.95 396.7 782.25 396.7 782.5 396.7 783.75 396.8 785.15 396.85 790.1 396.8 796.3 395.35 798.85 394.8 801.65 394.05 805.9 392.95 810.65 391.35 819.65 388.25 819.85 383.2 816.7 382.7 812.95 381.85 811.95 381.55 810.85 381.25 810.55 385.15 802.8 387.55 799.35 388.6 794.4 389.35 790.7 389.45 787.15 388.85 786.9 388.75 786.75 388.75 784.35 388.3 783.15 387.4 782.25 386.85 781.95 385.85 781.5 384.8 781.9 383.95 782.25 382.6 784.25 381.95 785.95 381.1 788.75 380.8 789.8 380.65 790.95 380.55 794.25 380.35 796.15 380.1 799.75 380.15 803.35 380.45 807.15 380.65 810.85 381.25 809.65 380.9 808.55 380.55 806.85 380 803.4 378.85 802.7 378.6 801.95 378.35 800 377.75 797.55 376.85 796.05 376.3 794.65 375.8 799.1 374.55 803.35 372.4 804.35 371.9 805.4 371.3 823.8 360.9 827.85 342.2 825.3 346.5 820.3 348.7 819.7 348.95 819.2 349.15 816 354.1 810.7 358.2 806.9 361.1 802.55 363.2 797.2 365.8 791 367 790.6 367.05 790.15 367.15 780.5 368.85 768.05 367.4 763.3 366.8 755.35 365.25 751.1 364.5 745.95 363.3 750.05 368.9 753.05 374.95 758.65 385.8 761.05 398.35 754.7 395.25 748.15 392.45 725.35 382.6 700.05 376.05
L 697.4 402.5
Q 693.25 395.95 682.55 391.5 681.7 391.15 673.4 388 667.8 385.8 664.45 383.95 Z"/>
</g>

<g id="Layer13_0_FILL">
<path fill="#009FC3" stroke="none" d="
M 721.25 571.1
Q 713.35 577.3 708.3 585.45 702.9 594.05 701.6 603.35 700.05 613.9 703.65 626.25 706.25 635.45 712.6 647.95 724.75 672.5 740.25 695.6 747.25 705.85 752.65 711.45 760.35 719.4 768.75 722.7 777.95 726.3 788.85 724.95 798.9 723.75 808.5 718.6 816.6 714.3 825.3 706.85 830.8 702.15 840.35 692.6 851.85 681 856.9 671.7 863.9 658.65 860.35 647.45 858.3 641.1 852.8 635.95 850.1 633.4 846.9 631.4 838.75 630.2 830.85 625.35 826.8 622.85 822.85 619.45 814.2 612 803 596.95 791.35 581.2 783.75 574.1 771.65 562.75 758.75 560.35 749.25 558.6 739 561.75 729.5 564.65 721.25 571.1 Z"/>
</g>

<g id="breast_0_Layer2_0_FILL">
<path fill="#009FC3" stroke="none" d="
M 354.35 341.85
Q 415.3 290.15 415.3 217 415.3 143.85 354.35 92.15 293.4 40.45 207.2 40.45 121 40.45 60.05 92.15 -0.9 143.85 -0.9 217 -0.9 290.15 60.05 341.85 121 393.55 207.2 393.55 293.4 393.55 354.35 341.85 Z"/>
</g>

<g id="breast_0_Layer1_0_FILL">
<path fill="#EF5C37" stroke="none" d="
M 35.3 78.95
Q 34.15 78.6 33.05 78.35 11.45 113.5 2.75 153.5 0.45 164.5 0.05 172.4 -0.05 174.5 0 176.5 3 180.8 6.95 184.85 18.55 196.75 35.15 203.5 43 206.65 52.4 208.85 59.5 210.5 67.55 211.6 78.55 213.1 101.15 214.35 108.1 214.6 111.5 214.15 117.2 213.45 120.75 210.6 126.95 205.8 128 191.9 128.7 182.45 128.95 180.8 129.85 174.6 132.15 170.6 129.25 171.7 126.45 169.4 123.8 167.15 123.4 163.85 123.15 161.1 124.3 157.8 125.05 155.65 127 152 128.8 148.65 130.45 145.35 125.55 144.4 120.9 142.85 110.3 139.3 104.4 133.75 101.9 131.35 99.25 127.6 96.25 123.2 94.75 121 83.25 104.2 65.85 92.75 51.45 83.25 35.3 78.95
M 21.9 170.5
Q 25.35 170.5 29.35 172.5 31.1 173.35 36.25 176.6 37.75 177.55 38.9 178.35 42 180.4 42.75 181 46.2 183.65 48 186.5 49.05 188.05 49.35 189.6 49.65 191.45 48.9 192.85 47.85 194.95 44.9 195.45 43.4 195.65 41.4 195.5 34.7 194.75 28.7 191.65 22.65 188.6 18.15 183.6 17.8 183.2 17.5 182.85 16.6 181.25 16.15 180.35 15.2 178.4 15.1 176.6 14.95 174.45 16 173 17.65 170.5 21.9 170.5
M 378.9 75.35
Q 377.8 75.6 376.65 75.95 360.5 80.25 346.1 89.75 328.7 101.2 317.2 118 315.7 120.2 312.7 124.6 310.05 128.35 307.55 130.75 301.65 136.3 291.05 139.85 286.4 141.4 281.5 142.35 283.15 145.65 284.95 149 286.9 152.65 287.65 154.8 288.8 158.1 288.55 160.85 288.15 164.15 285.5 166.4 282.7 168.7 279.8 167.6 282.1 171.6 283 177.8 283.25 179.45 283.95 188.9 285 202.8 291.2 207.6 294.75 210.45 300.45 211.15 303.85 211.6 310.8 211.35 333.4 210.1 344.4 208.6 352.45 207.5 359.55 205.85 368.95 203.65 376.8 200.5 393.4 193.75 405 181.85 408.95 177.8 411.95 173.5 412 171.5 411.9 169.4 411.5 161.5 409.2 150.5 400.5 110.5 378.9 75.35
M 362.6 186.6
Q 362.9 185.05 363.95 183.5 365.75 180.65 369.2 178 369.95 177.4 373.05 175.35 374.2 174.55 375.7 173.6 380.85 170.35 382.6 169.5 386.6 167.5 390.05 167.5 394.3 167.5 395.95 170 397 171.45 396.85 173.6 396.75 175.4 395.8 177.35 395.35 178.25 394.45 179.85 394.15 180.2 393.8 180.6 389.3 185.6 383.25 188.65 377.25 191.75 370.55 192.5 368.55 192.65 367.05 192.45 364.1 191.95 363.05 189.85 362.3 188.45 362.6 186.6 Z"/>

<path fill="#009FC3" stroke="none" d="
M 29.35 172.5
Q 25.35 170.5 21.9 170.5 17.65 170.5 16 173 14.95 174.45 15.1 176.6 15.2 178.4 16.15 180.35 16.6 181.25 17.5 182.85 17.8 183.2 18.15 183.6 22.65 188.6 28.7 191.65 34.7 194.75 41.4 195.5 43.4 195.65 44.9 195.45 47.85 194.95 48.9 192.85 49.65 191.45 49.35 189.6 49.05 188.05 48 186.5 46.2 183.65 42.75 181 42 180.4 38.9 178.35 37.75 177.55 36.25 176.6 31.1 173.35 29.35 172.5
M 363.95 183.5
Q 362.9 185.05 362.6 186.6 362.3 188.45 363.05 189.85 364.1 191.95 367.05 192.45 368.55 192.65 370.55 192.5 377.25 191.75 383.25 188.65 389.3 185.6 393.8 180.6 394.15 180.2 394.45 179.85 395.35 178.25 395.8 177.35 396.75 175.4 396.85 173.6 397 171.45 395.95 170 394.3 167.5 390.05 167.5 386.6 167.5 382.6 169.5 380.85 170.35 375.7 173.6 374.2 174.55 373.05 175.35 369.95 177.4 369.2 178 365.75 180.65 363.95 183.5 Z"/>

<path fill="#BF492C" stroke="none" d="
M 376.65 71.8
Q 372.25 64.85 367.3 58.05 342.45 24.05 309.05 0.85 302.8 0.1 296.65 0 281.6474609375 -0.2751953125 267 3.3 260.363671875 4.9333984375 253.8 7.35 221.15 19.35 205.05 46.2 188.95 21.7 158.15 10.35 137.1 2.6 115.3 3 109.15 3.1 102.9 3.85 69.5 27.05 44.65 61.05 39.7 67.85 35.3 74.8 34.15 76.55 33.05 78.35 34.15 78.6 35.3 78.95 51.45 83.25 65.85 92.75 83.25 104.2 94.75 121 96.25 123.2 99.25 127.6 101.9 131.35 104.4 133.75 110.3 139.3 120.9 142.85 125.55 144.4 130.45 145.35 128.8 148.65 127 152 125.05 155.65 124.3 157.8 123.15 161.1 123.4 163.85 123.8 167.15 126.45 169.4 129.25 171.7 132.15 170.6 129.85 174.6 128.95 180.8 128.7 182.45 128 191.9 126.95 205.8 120.75 210.6 117.2 213.45 111.5 214.15 108.1 214.6 101.15 214.35 78.55 213.1 67.55 211.6 59.5 210.5 52.4 208.85 43 206.65 35.15 203.5 18.55 196.75 6.95 184.85 3 180.8 0 176.5 0.1 184.5 2.15 191.1 6.75 205.7 21.25 216.6 33.5 225.8 51.15 231.25 64.4 235.3 79.95 237.55 88.05 238.7 96.75 239.4 114.95 240.8 143.5 240.35 159.75 240 168.7 238.6 182.5 236.4 192.15 230.6 200.7 225.5 207.2 217 212.85 223.4 219.8 227.6 229.45 233.4 243.25 235.6 251.7966796875 236.9369140625 267 237.3 267.717578125 237.3341796875 268.45 237.35 297 237.8 315.2 236.4 323.9 235.7 332 234.55 347.55 232.3 360.8 228.25 378.45 222.8 390.7 213.6 405.2 202.7 409.8 188.1 411.85 181.5 411.95 173.5 408.95 177.8 405 181.85 393.4 193.75 376.8 200.5 368.95 203.65 359.55 205.85 352.45 207.5 344.4 208.6 333.4 210.1 310.8 211.35 303.85 211.6 300.45 211.15 294.75 210.45 291.2 207.6 285 202.8 283.95 188.9 283.25 179.45 283 177.8 282.1 171.6 279.8 167.6 282.7 168.7 285.5 166.4 288.15 164.15 288.55 160.85 288.8 158.1 287.65 154.8 286.9 152.65 284.95 149 283.15 145.65 281.5 142.35 286.4 141.4 291.05 139.85 301.65 136.3 307.55 130.75 310.05 128.35 312.7 124.6 315.7 120.2 317.2 118 328.7 101.2 346.1 89.75 360.5 80.25 376.65 75.95 377.8 75.6 378.9 75.35 377.8 73.55 376.65 71.8 Z"/>
</g>

<g id="belly_0_Layer1_0_FILL">
<path fill="#BF492C" stroke="none" d="
M 508.2 327.35
Q 508.3587890625 321.0705078125 508.35 314.8 475.2056640625 349.84375 434.5 376 374.65 414.5 316.35 421.75 283.6 425.75 252.65 419.4 219.9 412.7 194.1 395.4 174.75 382.35 166.35 366.9 159.2 353.9 157.35 333.35 156.8 327.15 156.4 315.4 155.95 303.05 155.5 297.5 154.35 283.15 150.05 262.15 144.95 238.75 142.75 227 139.15 207.4 136.7 182.45 135.3 167.95 133.1 137.5 131.35 113.45 131.8 100.6 132.45 80.1 137.85 64.65 143.65 48.25 155.55 34.9 156.6 33.75 157.65 32.65 154.65 33.35 151.85 34.15 122.25 42.35 101.75 57.15 88.65 66.6 76.55 80.65 66.4 92.4 56 108.65 15.75 171.95 4.25 248.1 -7.3 324.25 12.5 396.5 16.25 410.3 20.3 419.95 25.4 432.25 32.25 441.4 38.3 449.55 47.3 457.35 54.5 463.6 64.85 470.65 80.55 481.4 94 488.45 110.2 496.9 125.5 501.25 141.35 505.75 161.85 507.45 174.5 508.5 198.85 508.9 228.1 509.5 288 510.5 320.45 511 335.7 510.35 362.25 509.15 382.85 504.25 390.0744140625 502.5623046875 398.75 499.8 399.2904296875 499.6228515625 399.8 499.45 413.6681640625 494.9921875 431.15 487.85 435.984375 485.8814453125 440.35 484.1 444.6599609375 481.319921875 448.85 478.05 470.75 461 484.45 435.25 496.7 412.35 502.55 382.95 507.5 358.3 508.2 327.35
M 248.9 284.55
Q 250.5 281.15 252.15 277.95 249.25 280.9 246.55 284 234.65 297.65 226.85 313.75 224.55 318.55 223.7 321.95 222.5 326.6 223.35 330.5 224.25 334.4 227.25 337.7 230.1 340.75 234 342.5 240.35 345.35 250.25 344.9 265.65 344.15 279 337 288.2 332.15 289.85 325.9 292.5 316.55 280 304.9 277.05 302.2 275.05 300.8 272.15 298.8 269.35 298 264.5 296.65 259.2 298.85 254.25 300.9 250.6 305.25 247.6 308.95 245.3 314.35 243.75 317.9 241.75 324.5 244.15 322.95 247.2 319.85
L 252.25 314.75
Q 258.9 308.55 265 309.4 269.3 310 272.2 314 274.95 317.85 274.85 322.4 274.65 326.25 272.75 328.15 271.85 329.15 270.7 329.7 269.55 330.2 266.8 331.5 264.05 332.75 259.9 334.75 255.7 336.75 253.25 337.65 249.15 339.15 245.35 339.05 241 338.95 238.1 336.65 235.6 334.65 234.4 331.3 233.35 328.2 233.6 324.65 233.75 321.7 234.85 318.15 235.5 316 237.1 311.9 244.15 294.55 248.9 284.55 Z"/>

<path fill="#EF5C37" stroke="none" d="
M 491.85 186.1
Q 488.883984375 175.7087890625 486.25 167.6 473.7 129.45 456.25 104.65 444.3 87.65 427.3 72.65 423.4 69.2 419.25 65.9 407.7 56.6 394.15 48.2 386.95 44.05 379.15 40.45 353.45 28.65 323.25 23.65 296.65 19.3 265.2 19.9 240.05 20.4 207 24.25 177.9 27.6 157.65 32.65 156.6 33.75 155.55 34.9 143.65 48.25 137.85 64.65 132.45 80.1 131.8 100.6 131.35 113.45 133.1 137.5 135.3 167.95 136.7 182.45 139.15 207.4 142.75 227 144.95 238.75 150.05 262.15 154.35 283.15 155.5 297.5 155.95 303.05 156.4 315.4 156.8 327.15 157.35 333.35 159.2 353.9 166.35 366.9 174.75 382.35 194.1 395.4 219.9 412.7 252.65 419.4 283.6 425.75 316.35 421.75 374.65 414.5 434.5 376 475.2056640625 349.84375 508.35 314.8 508.393359375 261.805078125 497.35 209.45 494.871875 197.681640625 491.85 186.1
M 252.15 277.95
Q 250.5 281.15 248.9 284.55 244.15 294.55 237.1 311.9 235.5 316 234.85 318.15 233.75 321.7 233.6 324.65 233.35 328.2 234.4 331.3 235.6 334.65 238.1 336.65 241 338.95 245.35 339.05 249.15 339.15 253.25 337.65 255.7 336.75 259.9 334.75 264.05 332.75 266.8 331.5 269.55 330.2 270.7 329.7 271.85 329.15 272.75 328.15 274.65 326.25 274.85 322.4 274.95 317.85 272.2 314 269.3 310 265 309.4 258.9 308.55 252.25 314.75
L 247.2 319.85
Q 244.15 322.95 241.75 324.5 243.75 317.9 245.3 314.35 247.6 308.95 250.6 305.25 254.25 300.9 259.2 298.85 264.5 296.65 269.35 298 272.15 298.8 275.05 300.8 277.05 302.2 280 304.9 292.5 316.55 289.85 325.9 288.2 332.15 279 337 265.65 344.15 250.25 344.9 240.35 345.35 234 342.5 230.1 340.75 227.25 337.7 224.25 334.4 223.35 330.5 222.5 326.6 223.7 321.95 224.55 318.55 226.85 313.75 234.65 297.65 246.55 284 249.25 280.9 252.15 277.95 Z"/>
</g>

<g id="belly_0_Layer0_0_FILL">
<path fill="#00CCCC" stroke="none" d="
M 280.8 357.25
Q 277.696484375 356.3595703125 274.5 355.75 272.1 355.25 271.25 356.1 270 357.05 270.5 359.6 272.7021484375 376.8341796875 280.8 392.1 285.439453125 400.7703125 291.95 408.8 303.3619140625 422.9138671875 317.9 431.7 313.937890625 410.4607421875 300.95 387.5 300.8169921875 387.2431640625 300.65 386.95 293.6814453125 374.7890625 280.8 357.25
M 235.05 380.5
Q 231.469140625 383.7716796875 228.35 387.9 218.1 401.4 218.1 417.25 218.5 417 226.6 411.75 226.9 430.3 238.9 445.9 250.95 461.5 268.75 466.5 266.8 458.35 267.55 447.7 267.95 442.2 270.05 428.5 271.9 416.3 272.1 409.45 272.2638671875 400.9328125 270.4 394 270.0068359375 392.457421875 269.5 391 267.05 384.1 262.25 378.35 258.4111328125 373.743359375 253.5 370.45 253.334765625 370.3787109375 253.15 370.25 242.97578125 373.290234375 235.05 380.5
M 234.3 374.2
Q 235.366015625 373.995703125 236.35 373.75 241.090625 372.7302734375 244.75 371.25 256.95 366.4 266.2 354.45 269.3912109375 350.358203125 272.1 345.65 271.784765625 345.253125 271.45 344.85 265.5931640625 347.809765625 258 350.65 243.76796875 355.552734375 236.45 358.45 236.1005859375 358.6083984375 235.75 358.75 217.6697265625 366.041015625 208.45 376.6 209.2759765625 376.70546875 210.1 376.75 214.9 377 223.5 375.85 231.45 374.75 234.3 374.2 Z"/>

<path fill="#009FC3" stroke="none" d="
M 236.35 373.75
Q 235.366015625 373.995703125 234.3 374.2 231.45 374.75 223.5 375.85 214.9 377 210.1 376.75 209.2759765625 376.70546875 208.45 376.6 203.620703125 382.2259765625 201.25 388.75 208.6 386.35 223.35 381.75 212.6 392.3 210.6 408.3 208.6 424.3 216.35 437.25 216.45 433.85 217.75 430.75 219.05 427.55 221.35 425.25 220.15 436.35 226.25 448.6 230.75 457.7 240.35 469.1 252.1 483.25 255.7 488.7 263.35 500.35 264.75 511.1 278.7 491.4 284.25 467.3 289.75 443.2 285.75 419.5 290.8 428.35 299.85 433.85 308.9 439.4 319.1 439.85 318.6693359375 435.821875 317.9 431.7 303.3619140625 422.9138671875 291.95 408.8 285.439453125 400.7703125 280.8 392.1 272.7021484375 376.8341796875 270.5 359.6 270 357.05 271.25 356.1 272.1 355.25 274.5 355.75 277.696484375 356.3595703125 280.8 357.25 276.7509765625 351.72109375 272.1 345.65 269.3912109375 350.358203125 266.2 354.45 256.95 366.4 244.75 371.25 241.090625 372.7302734375 236.35 373.75
M 228.35 387.9
Q 231.469140625 383.7716796875 235.05 380.5 242.97578125 373.290234375 253.15 370.25 253.334765625 370.3787109375 253.5 370.45 258.4111328125 373.743359375 262.25 378.35 267.05 384.1 269.5 391 270.0068359375 392.457421875 270.4 394 272.2638671875 400.9328125 272.1 409.45 271.9 416.3 270.05 428.5 267.95 442.2 267.55 447.7 266.8 458.35 268.75 466.5 250.95 461.5 238.9 445.9 226.9 430.3 226.6 411.75 218.5 417 218.1 417.25 218.1 401.4 228.35 387.9 Z"/>
</g>

<g id="chesthair_0_Layer0_0_FILL">
<path fill="#00CCCC" stroke="none" d="
M 57.2 34.4
Q 52.95 34.8 45.35 36.65
L 39 38.25
Q 38.8 38.4 38.6 38.6 29.4 46.4 20.65 54.75 15.95 61.1 12.75 68.15 17.7 68.5 23.7 67.5 27.8 66.8 34.5 65 41.45 63.25 46.8 61.5 51.65 59.85 55.15 58.2 58.75 56.55 61.75 54.6 67.85 50.55 71.5 45.25 73.95 42.1 73.1 39.5 72.45 37.15 68.75 35.65 63.8 33.8 57.2 34.4
M 197.5 60.85
Q 195.9 58.4 194.05 56.15 192.2 56.35 191.05 56.5 187.4 56.95 185.75 58.75 183.75 60.9 184 64.25 184 66.95 185.25 70 186.1 72.05 188 75.25 188.9 76.7 189.85 78.1 196.45 87.8 205.6 95.5 206.85 96.65 208.05 97.05 208.2 88 205.65 78.85 202.9 68.95 197.5 60.85
M 199.2 46.3
Q 199.45 46.4 199.75 46.5 203.7 47.9 215.15 49.15 217.8 49.45 220.1 49.9 212.8 40.35 203.8 32.35 199.6 31.05 196.85 30.55 195.85 30.35 195 30.25 188.25 29.65 183.85 32.5 186.3 37.4 190.45 41.05 194.35 44.55 199.2 46.3
M 113.1 53.65
Q 107.65 54.2 93.8 52.05 83.7 50.45 77.3 51.4 75.95 51.6 74.75 51.9 70.3 53 65.75 55.8 65.1 56.6 64.5 57.5 61.5 61.5 59.15 66.15 55.4 73.55 53.8 81.35 52.75 86.35 52.6 91.5 54.95 90.15 57.2 88.7 65.6 83.05 71.75 75.25 72.2 74.7 72.6 74.15 72 75.5 71.5 76.85 67.9 85.95 68 96.2 68.05 99.7 68.5 103.1 68.7 104.7 69 106.3 70.2 112.45 72.85 118.15 73.7 114.9 74.75 111.8 78.3 101.1 84.35 91.75 90.05 108.3 101.1 122.2 102 123.35 102.95 124.5 109.05 131.8 116.2 137.75 123.5 143.85 131.85 148.5 135.75 150.75 138.25 150 141.9 148.7 142.25 141.5 142.7 128 141.25 114.35 138.4 88.3 128.75 61.65 127.05 56.45 124.25 54.5 122.25 53.15 118.9 53.2 115 53.55 113.1 53.65
M 178.75 61.05
Q 177.45 58.65 175.75 56.4 171.35 50.55 166.4 49 163.45 49.65 159.55 50.45 150.4 52.3 147.1 56.9 144.9 59.95 144.45 64.6 144.1 67.75 144.6 73 146.35 93.1 147.5 103.15 148 107.35 148.5 111.3 150.05 123.15 152 133 153.3 139.85 157 140.25 160.2 140.7 163.6 135.9 169.4 127.1 175.25 112.9 177.25 108.15 178.75 103.9 181.1 97.15 182.25 91.65 182.7 89.35 183 87.2 184.25 77.75 182.25 69.9 181.05 65.25 178.75 61.05 Z"/>

<path fill="#009FC3" stroke="none" d="
M 188.75 20.9
Q 183.85 17.65 178.75 14.95 160.45 5.1 140.1 1.75 117.55 -2.05 94.85 2.45 91.3 3.1 87.8 4 85.45 4.6 83.15 5.3 70.9 13.3 59.15 22.15 50.55 28.6 42.35 35.45 40.65 36.85 39 38.25
L 45.35 36.65
Q 52.95 34.8 57.2 34.4 63.8 33.8 68.75 35.65 72.45 37.15 73.1 39.5 73.95 42.1 71.5 45.25 67.85 50.55 61.75 54.6 58.75 56.55 55.15 58.2 51.65 59.85 46.8 61.5 41.45 63.25 34.5 65 27.8 66.8 23.7 67.5 17.7 68.5 12.75 68.15 15.95 61.1 20.65 54.75 9.95 64.85 0 75.65 12.95 79 26.7 77.1 38.9 75.35 49.6 69.8 50.85 69.1 52.1 68.4 51.15 70.3 50.4 72.25 47.35 80 46.95 88.7 46.5 99.5 50.25 109.4 56.6 100.15 59.75 95.5 56.95 108.55 61.7 121.7 64.7 129.9 69.9 136.15 73.05 139.95 77 143 74.95 140.35 75 136.75 75.1 133.1 77.35 130.5 96.35 149.5 119.6 162.6 121.65 163.8 123.75 164.9 129.05 167.7 132.95 169 138.25 170.75 142.75 170.5 152.25 169.75 162.85 159.65 172.15 150.7 178.75 139.7 181 135.95 182.9 132 190.55 116.25 192.25 99.15
L 206.75 108.5
Q 207.95 102.8 208.05 97.05 206.85 96.65 205.6 95.5 196.45 87.8 189.85 78.1 188.9 76.7 188 75.25 186.1 72.05 185.25 70 184 66.95 184 64.25 183.75 60.9 185.75 58.75 187.4 56.95 191.05 56.5 192.2 56.35 194.05 56.15 192.7 54.5 191.25 52.9 194.55 53.35 198.8 53.95 209.35 55.45 225.75 57.9 223.05 53.75 220.1 49.9 217.8 49.45 215.15 49.15 203.7 47.9 199.75 46.5 199.45 46.4 199.2 46.3 194.35 44.55 190.45 41.05 186.3 37.4 183.85 32.5 188.25 29.65 195 30.25 195.85 30.35 196.85 30.55 199.6 31.05 203.8 32.35 199.45 28.55 194.8 25.1 191.85 22.95 188.75 20.9
M 175.75 56.4
Q 177.45 58.65 178.75 61.05 181.05 65.25 182.25 69.9 184.25 77.75 183 87.2 182.7 89.35 182.25 91.65 181.1 97.15 178.75 103.9 177.25 108.15 175.25 112.9 169.4 127.1 163.6 135.9 160.2 140.7 157 140.25 153.3 139.85 152 133 150.05 123.15 148.5 111.3 148 107.35 147.5 103.15 146.35 93.1 144.6 73 144.1 67.75 144.45 64.6 144.9 59.95 147.1 56.9 150.4 52.3 159.55 50.45 163.45 49.65 166.4 49 171.35 50.55 175.75 56.4
M 93.8 52.05
Q 107.65 54.2 113.1 53.65 115 53.55 118.9 53.2 122.25 53.15 124.25 54.5 127.05 56.45 128.75 61.65 138.4 88.3 141.25 114.35 142.7 128 142.25 141.5 141.9 148.7 138.25 150 135.75 150.75 131.85 148.5 123.5 143.85 116.2 137.75 109.05 131.8 102.95 124.5 102 123.35 101.1 122.2 90.05 108.3 84.35 91.75 78.3 101.1 74.75 111.8 73.7 114.9 72.85 118.15 70.2 112.45 69 106.3 68.7 104.7 68.5 103.1 68.05 99.7 68 96.2 67.9 85.95 71.5 76.85 72 75.5 72.6 74.15 72.2 74.7 71.75 75.25 65.6 83.05 57.2 88.7 54.95 90.15 52.6 91.5 52.75 86.35 53.8 81.35 55.4 73.55 59.15 66.15 61.5 61.5 64.5 57.5 65.1 56.6 65.75 55.8 70.3 53 74.75 51.9 75.95 51.6 77.3 51.4 83.7 50.45 93.8 52.05 Z"/>
</g>

<g id="hand1_0_Layer1_0_FILL">
<path fill="#BF492C" stroke="none" d="
M 134.55 435.25
Q 134.95 427.3 134.35 421.9 133.55 414.65 130.75 408.8 130.6 408.55 130.5 408.3 128.3 403.95 125.25 401 125 404.8 122.9 408.75 119.6 414.85 113.45 418.5 108.25 421.5 100.85 423.05 96 424.05 87.35 424.75 80 425.35 74.15 425.4 71.35 426.1 69 427.25 63.75 429.8 61.1 434 57.7 439.35 58.1 447 58.1 447.55 58.25 450.75 58.35 453.05 58.2 454.5 57.8 458.55 55.55 460.85 55.2 458.95 55.1 456.5 53.95 436.3 53.35 424.2 47.55 426.65 41 427.55 30.05 429.1 19.85 425.9 10.15 422.75 2.45 415.8 3.15 417.35 4.1 418.95 5.8 421.75 9.2 426.25 9.65 426.9 20.7 441.65 25.9 448.7 29.25 452.4 34.4 458.05 39.6 461.15 45.8 464.8 52.7 465.1 54.95 465.2 57 464.9 59.15 468.1 64.7 470.25 69.3 471.95 75.2 472.7 79.6 473.25 85.95 473.4 99.85 473.8 113.7 472.65 119.4 472.3 123.05 471.55 128.05 470.5 131.7 468.4 135.2 466.4 138.3 462.95 137.25 462 136.45 461 134.7 458.75 134.1 455.2 133.7 452.7 133.85 448.65 134.35 439.75 134.55 435.25
M 317.65 383.6
Q 316.25 385.35 314.35 386.5 309.9 389.15 303.65 387.7 298.75 386.55 293.1 383 280.2 375.05 269.75 363.85 259.4 352.7 252.35 339.25 245.15 361.6 239.45 372.75 230.4 390.55 217.45 399.65 209.05 405.55 197.35 409.05 194.05 410.05 190.3 410.9 183.6 412.35 175.35 413.4 172.4 413.75 169.65 414 168.2 414.55 166.55 415.1 158.95 417.75 155.1 419.65 149.05 422.5 145 426.75 140.4 431.55 139.35 437.25 138.9 439.4 138.9 443.95 138.85 448.4 138.35 450.65 138.2 451.35 137.4 454.3 136.8 456.45 136.7 457.9 136.5 459.85 137.35 461.55 137.75 462.35 138.35 462.9
L 138.3 462.95
Q 138.5 463.1 138.7 463.25 139.2 463.65 139.85 464.1 141.85 465.4 144.6 466.4 159.7 472.4 179.5 472.1 193.9 471.9 215.35 467.9 216.25 467.75 217.1 467.6 223 466.4 226.3 465.45 232.2 463.75 236.45 461.15 239.9 459.15 242.5 456.45 246.45 456.8 251.1 455.2 259.15 452.45 265.45 445.5 272.7 436.55 276.3 432.1 282.75 424.1 288.6 420.65 290.65 419.45 301.8 415.1 309.95 411.9 313.6 407.75 317.65 403.3 318.5 396.35 319.25 390.4 317.65 383.6
M 246.6 388.5
Q 247.8 386.75 249.4 385.9 251.3 384.85 252.6 385.9 253.5 386.7 253.7 389 253.7 389.4 253.75 389.85 252.8 391.7 251.35 394.15 237.2 417.65 221.6 438.75 221.2 439.65 221.55 440.6 221.95 441.6 222.85 441.9 227.2 443.55 230.55 446.8 230.3 446.7 230.1 446.65 225.6 445.3 223.1 443.95 219.45 441.95 217.95 439 216.05 434.75 217.95 429.4 218.7 427.4 220.2 425 222.05 422.3 222.95 420.9
L 246.6 388.5
M 54.3 344.4
Q 55.3 337.1 53.95 331.9 53.05 328.35 51.1 326.5 49.8 325.5 48.25 325.3 46.6 325.1 45.35 325.9 43.7 326.8 42.7 330.4 38.1 347.7 42.2 365.7 45.5 380.45 53.8 392.2 54 391.2 53.9 390.05 53.85 388.55 53.2 386.15 49.8 371.8 52.1 357 53.75 348.6 54.3 344.4
M 108.85 292.75
Q 106.9 289.35 104.45 288.9 102.1 288.55 100.25 291.05 98.8 293 97.95 296.15 94 313.55 95.2 331.4 95.6 337.75 96.65 344.1 99.9 363.65 108.65 380.7 111.3 382.05 113.95 381.75 114.2 375.45 111.5 364.55 108.4 352.3 108.1 347.25 107.75 342.35 108.65 335.8 108.75 334.75 108.95 333.6 110.7 324.45 111.45 319.9 112.65 311.95 112.3 305.95 111.85 298.35 108.85 292.75
M 112.15 272.7
Q 114.7 277.4 116.35 278.9 120.25 282.65 126.55 282.2 132.3 281.85 137.35 278.4 140.7 276.2 145.9 271.05 151.55 265.5 154.35 263.4 162.6 257.2 174.1 255.6 184.6 254.15 195.85 256.65 205.25 258.7 216.2 263.8 222.8 266.9 235.45 273.9 269.4 292.7 286.6 308.2 297.05 317.65 303.95 327.75 303.55 324.35 303.45 323.65 300.85 307 293.15 297.75 293.8708984375 297.0576171875 294.55 296.35 262.5115234375 267.98671875 218.1 253.1 167.5 236.15 112.35 240.25 69.25 243.35 35.6 260.5 9.0119140625 274.0357421875 -2.05 295.3 -0.65 301.75 -1.4 309.9 -1.7 313.15 -3.15 322.7 -2.05 321.5 -1.05 320.15 1 317.45 5.2 310 8.95 303.3 11.55 300.3 15.6 295.75 20.6 294.5 27.75 292.75 35.45 298.05 41.1 301.95 47.45 310 63.8 285.7 87.85 269.9 93.25 266.4 97.8 265.35 103.7 264 107.6 266.9 109.8 268.45 112.15 272.7 Z"/>

<path fill="#EF5C37" stroke="none" d="
M 249.4 385.9
Q 247.8 386.75 246.6 388.5
L 222.95 420.9
Q 222.05 422.3 220.2 425 218.7 427.4 217.95 429.4 216.05 434.75 217.95 439 219.45 441.95 223.1 443.95 225.6 445.3 230.1 446.65 230.3 446.7 230.55 446.8 227.2 443.55 222.85 441.9 221.95 441.6 221.55 440.6 221.2 439.65 221.6 438.75 237.2 417.65 251.35 394.15 252.8 391.7 253.75 389.85 253.7 389.4 253.7 389 253.5 386.7 252.6 385.9 251.3 384.85 249.4 385.9
M 116.35 278.9
Q 114.7 277.4 112.15 272.7 109.8 268.45 107.6 266.9 103.7 264 97.8 265.35 93.25 266.4 87.85 269.9 63.8 285.7 47.45 310 41.1 301.95 35.45 298.05 27.75 292.75 20.6 294.5 15.6 295.75 11.55 300.3 8.95 303.3 5.2 310 1 317.45 -1.05 320.15 -2.05 321.5 -3.15 322.7 -3.2 323.05 -3.25 323.4 -3.4 324.2 -3.5 325 -4.6 332.4 -4.65 337 -4.75 344.95 -1.3 361.85 1.95 377.9 1.45 386.65 1.3 390.7 0.15 398.85 -0.6 406.15 0.6 410.9 1.2 413.3 2.45 415.8 10.15 422.75 19.85 425.9 30.05 429.1 41 427.55 47.55 426.65 53.35 424.2 53.95 436.3 55.1 456.5 55.2 458.95 55.55 460.85 57.8 458.55 58.2 454.5 58.35 453.05 58.25 450.75 58.1 447.55 58.1 447 57.7 439.35 61.1 434 63.75 429.8 69 427.25 71.35 426.1 74.15 425.4 80 425.35 87.35 424.75 96 424.05 100.85 423.05 108.25 421.5 113.45 418.5 119.6 414.85 122.9 408.75 125 404.8 125.25 401 128.3 403.95 130.5 408.3 130.6 408.55 130.75 408.8 133.55 414.65 134.35 421.9 134.95 427.3 134.55 435.25 134.35 439.75 133.85 448.65 133.7 452.7 134.1 455.2 134.7 458.75 136.45 461 137.25 462 138.3 462.95
L 138.35 462.9
Q 137.75 462.35 137.35 461.55 136.5 459.85 136.7 457.9 136.8 456.45 137.4 454.3 138.2 451.35 138.35 450.65 138.85 448.4 138.9 443.95 138.9 439.4 139.35 437.25 140.4 431.55 145 426.75 149.05 422.5 155.1 419.65 158.95 417.75 166.55 415.1 168.2 414.55 169.65 414 172.4 413.75 175.35 413.4 183.6 412.35 190.3 410.9 194.05 410.05 197.35 409.05 209.05 405.55 217.45 399.65 230.4 390.55 239.45 372.75 245.15 361.6 252.35 339.25 259.4 352.7 269.75 363.85 280.2 375.05 293.1 383 298.75 386.55 303.65 387.7 309.9 389.15 314.35 386.5 316.25 385.35 317.65 383.6 317.6 383.55 317.6 383.5 316.5 379.2 313.3 371.45 309.95 363.35 308.85 359.4 306.8 352.6 305.55 341.65 304.5 332.3 303.95 327.75 297.05 317.65 286.6 308.2 269.4 292.7 235.45 273.9 222.8 266.9 216.2 263.8 205.25 258.7 195.85 256.65 184.6 254.15 174.1 255.6 162.6 257.2 154.35 263.4 151.55 265.5 145.9 271.05 140.7 276.2 137.35 278.4 132.3 281.85 126.55 282.2 120.25 282.65 116.35 278.9
M 104.45 288.9
Q 106.9 289.35 108.85 292.75 111.85 298.35 112.3 305.95 112.65 311.95 111.45 319.9 110.7 324.45 108.95 333.6 108.75 334.75 108.65 335.8 107.75 342.35 108.1 347.25 108.4 352.3 111.5 364.55 114.2 375.45 113.95 381.75 111.3 382.05 108.65 380.7 99.9 363.65 96.65 344.1 95.6 337.75 95.2 331.4 94 313.55 97.95 296.15 98.8 293 100.25 291.05 102.1 288.55 104.45 288.9
M 53.95 331.9
Q 55.3 337.1 54.3 344.4 53.75 348.6 52.1 357 49.8 371.8 53.2 386.15 53.85 388.55 53.9 390.05 54 391.2 53.8 392.2 45.5 380.45 42.2 365.7 38.1 347.7 42.7 330.4 43.7 326.8 45.35 325.9 46.6 325.1 48.25 325.3 49.8 325.5 51.1 326.5 53.05 328.35 53.95 331.9 Z"/>
</g>

<g id="hand1_0_Layer0_0_FILL">
<path fill="#00CCCC" stroke="none" d="
M 2.2 223.1
Q 1.7529296875 226.10625 1.4 229.1 -0.7658203125 232.3400390625 -2.6 236.25 -2.86171875 236.884375 -3.15 237.55 -7.2 246.95 -9.85 262.35 -12.7 279.6 -15.25 287.45 -16.0515625 289.9 -17 292.15 -17.7376953125 294.00078125 -18.6 295.7 -14.6751953125 293.8501953125 -11.3 291 -6.75 287.2 -3.85 282.25 -2.05 279 -0.35 274.15 1.45 268.55 2.35 265.75 4.65 259.75 5.7 256.7 7.45 251.4 7.85 247.35 9.2232421875 235.8416015625 2.2 223.1
M 258.45 97.4
Q 252.8896484375 77.2265625 244.8 58.3 238.1185546875 52.868359375 230.8 49.7 223.1 46.9 213.85 44.65 187.8 38.5 162.35 37.75 165.7 24.55 173.6 12.9 155 23.9 138.95 39.75 137.45 19.9 140.1 0 127.2 26.2 96.15 60.75 87.7 70.15 70.55 88.9 55.85 105.4 46.45 118.15 26.85 144.8 15.15 174.7 11.6236328125 183.7263671875 8.9 192.8 9.76015625 195.6458984375 11.2 198.55 16.8 209.9 28 215.85 37.65 221.1 50.9 222.6 60.4 223.7 75.25 223 111.5 221.5 147.25 215.1 169.1 211.25 185.25 206.3 205.35 200.05 220.85 191 238.5 180.75 250.85 166.25 261.684375 153.4677734375 266.9 139.1 264.16171875 118.146484375 258.45 97.4
M 214.65 306.15
Q 219.11484375 310.6564453125 224.45 314.3 224.7025390625 314.473046875 224.95 314.65 232.8400390625 319.9482421875 241.85 323 249.75 325.65 255.75 325 258.5 324.65 258.6 323.1 258.6 321.8 256.85 320.85 246.6 314 238.45 310.55 237.321484375 310.076171875 236.2 309.65 226.8279296875 306.1 218.25 306.1 216.04296875 306.1724609375 214.65 306.15
M 168.15 283.05
Q 168.301171875 283.5291015625 168.45 284.05 168.5919921875 284.54375 168.7 285 169.7111328125 288.3216796875 170.5 290.25 173.3 297.5 178.35 300.5 181.55 302.1 183 300.5 183.95 299.55 183.5 297.35 183 294.75 180.95 292.15 179.6 290.35 176.75 287.75 173.85 285.05 171.85 284 170.744140625 283.46484375 169.65 283.2 168.899609375 283.06640625 168.15 283.05
M 249.75 253.9
Q 247.8384765625 250.5333984375 245.75 247.55 245.67734375 247.434375 245.55 247.3 240.52421875 240.082421875 234.6 235.35 224.45 227 207.5 222.85 192.4 219 182.35 222.6 174.8 225.35 169.65 232.35 164.65 239.15 163.5 247.5 162.4 255.35 164.95 263.65 165.415234375 265.1845703125 165.95 266.65 169.487109375 270.5521484375 173.6 274.05 183.9 282.85 196.6 288.1 208.9 293.25 222.75 294.9 236 296.5 249.85 294.85 251.8 294.6 252.85 294.25 254.5 293.75 255.5 292.75 257.05 291.15 257.5 287.1 258.457421875 278.6546875 257.55 270.15 252.98828125 259.58671875 249.75 253.9
M 253.3 222.7
Q 252.6 224.65 252.75 227.35 253.15 237.55 258.4 250.75 260.2533203125 255.368359375 263.5 262.65 267.40546875 266.43671875 270.5 270 271.803515625 271.5578125 273.9 274.15 276.762890625 275.3369140625 279.35 275.15 280.5861328125 275.111328125 281.75 274.75 286.85 273.2 288.6 267.05 289.3947265625 264.3388671875 289.3 261.65 289.2716796875 258.608984375 288.1 255.6 286.6 251.55 282.45 245.95 277.05 238.65 275.85 236.6 273.9791015625 233.4326171875 272.6 229.7 268.335546875 225.3408203125 263.5 221.6 258.95 218.2 256.1 219.5 254.15 220.25 253.3 222.7
M 47.75 232.2
Q 46.6 232.85 44.6 234.35 27.9890625 247.6734375 14.45 262.45 12.8515625 267.18828125 12.5 272.5 12.4609375 273.0607421875 12.4 273.6 12.1759765625 279.51953125 13.5 285.5 15.8 296.1 23.35 309.6 26.95 315.9 30.2 319.75 34.55 324.9 39.5 327.35 38.65 323.35 39.5 319.3 40.35 315.25 42.75 311.85 44.25 309.65 46.95 307.15 50.25 304.3 51.85 302.85 62.75 293.05 67.25 281.6 68.6490234375 277.86953125 69.35 274.1 69.19453125 271.953125 68.9 269.7 68.25 264.25 66 254 64.6 247.55 63.55 244.4 61.8 239.15 59.25 235.75 55.5 230.8 51.25 231.1 49.6 231.2 47.75 232.2
M 133.6 229.1
Q 128.75 227.7 122.4 227.75 118.25 227.8 111 228.6 103.5 229.55 99.05 230.45 92.55 231.75 87.5 233.85 78.9 237.35 75.25 243.35 71.55 249.7 72.75 260.6 72.9607421875 263.127734375 73.3 265.6 83.719140625 280.843359375 98.45 292.8 117.3 308.15 139.85 315.25 140.5 301.15 146.25 289.1 152.95 277.2 155.7 271.1 156.3794921875 269.599609375 156.9 268.15 157.048046875 266.8248046875 157.1 265.5 157.4 257.35 154.85 250.25 152.15 242.75 146.65 237.15 140.9 231.3 133.6 229.1 Z"/>

<path fill="#009FC3" stroke="none" d="
M 272.75 96.8
Q 260.56171875 71.1939453125 244.8 58.3 252.8896484375 77.2265625 258.45 97.4 264.16171875 118.146484375 266.9 139.1 261.684375 153.4677734375 250.85 166.25 238.5 180.75 220.85 191 205.35 200.05 185.25 206.3 169.1 211.25 147.25 215.1 111.5 221.5 75.25 223 60.4 223.7 50.9 222.6 37.65 221.1 28 215.85 16.8 209.9 11.2 198.55 9.76015625 195.6458984375 8.9 192.8 4.426171875 207.8767578125 2.2 223.1 9.2232421875 235.8416015625 7.85 247.35 7.45 251.4 5.7 256.7 4.65 259.75 2.35 265.75 1.45 268.55 -0.35 274.15 -2.05 279 -3.85 282.25 -6.75 287.2 -11.3 291 -14.6751953125 293.8501953125 -18.6 295.7 -22.4248046875 303.495703125 -28 308.5 -20.9 312.3 -11.95 310.8 -3.65 309.45 3.35 304.25 4.8974609375 303.10234375 6.4 301.75 6.8447265625 301.3802734375 7.25 301 9.4109375 309.5869140625 14 317.75 23.7 334.85 43.75 349.75 43.3 345.6 45.1 341.1 46.7 337.15 49.85 333.35 52 330.8 56.1 327 61.15 322.35 62.6 320.85 71.1478515625 311.93203125 75.15 300.15 76.5552734375 295.9966796875 77.4 291.5 77.958984375 288.5248046875 78.2 285.6 87.74296875 301.125390625 101.8 313.85 122.85 332.9 149.25 341.25 144.6 329.15 148.75 313.5 151.5900390625 302.8873046875 160.05 286.45 160.3228515625 287.35703125 160.65 288.25 161.9015625 291.623828125 163.7 294.75 165.208203125 297.3884765625 167.1 299.85 174.65 309.6 187.75 316.25 187.75 311.35 188.35 308.25 188.7193359375 305.85 189.85 302.3 190.3755859375 300.744921875 191.05 298.9 199.7591796875 309.805859375 212 317.65 213.9966796875 318.9208984375 216.05 320.1 236.5 331.9 259.1 332 265.05 318.95 266.2 304.35 266.80625 296.653515625 266 289.2 265.3205078125 282.5015625 263.5 276 265.7384765625 281.5173828125 269.15 286.25 274.4228515625 293.584375 282.5 299.05 288.165625 302.8837890625 294.15 305.1 300.30625 307.403515625 306.8 308 305.4453125 301.2359375 308.6 292.05 308.9169921875 291.219140625 309.25 290.35 311.95 283.4 313.1 279.9 315.05 273.8 315.1 269.1 315.1 264.7474609375 313.55 259.85 314.541796875 259.9724609375 315.5 260 317.8568359375 260.0228515625 320.3 259.6 328.05 258.2 333.25 252.75 326.6 250.3 321.25 245.35 318.98046875 243.1560546875 316.4 239.8 315.564453125 238.7052734375 314.7 237.5 310.8 231.85 308.75 229.1 307.101953125 226.8326171875 305.4 224.95 302.5724609375 221.7361328125 299.6 219.6 299.6083984375 219.5046875 299.6 219.4 297.4 190.3 291.6 159.65 287.6 139 282.8 123.35 279.85 113.75 276.4 105.1
L 272.75 96.8
M 122.4 227.75
Q 128.75 227.7 133.6 229.1 140.9 231.3 146.65 237.15 152.15 242.75 154.85 250.25 157.4 257.35 157.1 265.5 157.048046875 266.8248046875 156.9 268.15 156.3794921875 269.599609375 155.7 271.1 152.95 277.2 146.25 289.1 140.5 301.15 139.85 315.25 117.3 308.15 98.45 292.8 83.719140625 280.843359375 73.3 265.6 72.9607421875 263.127734375 72.75 260.6 71.55 249.7 75.25 243.35 78.9 237.35 87.5 233.85 92.55 231.75 99.05 230.45 103.5 229.55 111 228.6 118.25 227.8 122.4 227.75
M 44.6 234.35
Q 46.6 232.85 47.75 232.2 49.6 231.2 51.25 231.1 55.5 230.8 59.25 235.75 61.8 239.15 63.55 244.4 64.6 247.55 66 254 68.25 264.25 68.9 269.7 69.19453125 271.953125 69.35 274.1 68.6490234375 277.86953125 67.25 281.6 62.75 293.05 51.85 302.85 50.25 304.3 46.95 307.15 44.25 309.65 42.75 311.85 40.35 315.25 39.5 319.3 38.65 323.35 39.5 327.35 34.55 324.9 30.2 319.75 26.95 315.9 23.35 309.6 15.8 296.1 13.5 285.5 12.1759765625 279.51953125 12.4 273.6 12.4609375 273.0607421875 12.5 272.5 12.8515625 267.18828125 14.45 262.45 27.9890625 247.6734375 44.6 234.35
M 252.75 227.35
Q 252.6 224.65 253.3 222.7 254.15 220.25 256.1 219.5 258.95 218.2 263.5 221.6 268.335546875 225.3408203125 272.6 229.7 273.9791015625 233.4326171875 275.85 236.6 277.05 238.65 282.45 245.95 286.6 251.55 288.1 255.6 289.2716796875 258.608984375 289.3 261.65 289.3947265625 264.3388671875 288.6 267.05 286.85 273.2 281.75 274.75 280.5861328125 275.111328125 279.35 275.15 276.762890625 275.3369140625 273.9 274.15 271.803515625 271.5578125 270.5 270 267.40546875 266.43671875 263.5 262.65 260.2533203125 255.368359375 258.4 250.75 253.15 237.55 252.75 227.35
M 245.75 247.55
Q 247.8384765625 250.5333984375 249.75 253.9 252.98828125 259.58671875 257.55 270.15 258.457421875 278.6546875 257.5 287.1 257.05 291.15 255.5 292.75 254.5 293.75 252.85 294.25 251.8 294.6 249.85 294.85 236 296.5 222.75 294.9 208.9 293.25 196.6 288.1 183.9 282.85 173.6 274.05 169.487109375 270.5521484375 165.95 266.65 165.415234375 265.1845703125 164.95 263.65 162.4 255.35 163.5 247.5 164.65 239.15 169.65 232.35 174.8 225.35 182.35 222.6 192.4 219 207.5 222.85 224.45 227 234.6 235.35 240.52421875 240.082421875 245.55 247.3 245.67734375 247.434375 245.75 247.55
M 168.45 284.05
Q 168.301171875 283.5291015625 168.15 283.05 168.899609375 283.06640625 169.65 283.2 170.744140625 283.46484375 171.85 284 173.85 285.05 176.75 287.75 179.6 290.35 180.95 292.15 183 294.75 183.5 297.35 183.95 299.55 183 300.5 181.55 302.1 178.35 300.5 173.3 297.5 170.5 290.25 169.7111328125 288.3216796875 168.7 285 168.5919921875 284.54375 168.45 284.05
M 224.45 314.3
Q 219.11484375 310.6564453125 214.65 306.15 216.04296875 306.1724609375 218.25 306.1 226.8279296875 306.1 236.2 309.65 237.321484375 310.076171875 238.45 310.55 246.6 314 256.85 320.85 258.6 321.8 258.6 323.1 258.5 324.65 255.75 325 249.75 325.65 241.85 323 232.8400390625 319.9482421875 224.95 314.65 224.7025390625 314.473046875 224.45 314.3 Z"/>
</g>

<g id="backhair_0_Layer0_0_FILL">
<path fill="#00CCCC" stroke="none" d="
M 11.15 87.35
Q 8 84.75 5.55 81.7 6.9 94.4 9.1 101.9 11.4 109.5 18 122.4 19.6 125.3 20.35 126.45 21.8 128.65 23.35 129.9 26.15 131.95 29.8 131.9 33.45 131.8 36.1 129.65 37.95 128.2 39.35 125.7 40.25 124.1 41.5 121 44.55 113.65 46.05 109.15 48.25 102.55 49.1 96.9 49.15 96.65 49.2 96.4 46.05 96.35 42 96.35 32.25 96.4 26.85 95.15 18.2 93.15 11.15 87.35
M 425.35 137.65
Q 427.95 136.2 430.55 133.55 432.1 131.9 434.85 128.4 442.6 117.65 448.7 106.3 441.95 109.95 436.05 115.1 431.45 119.15 427.7 123.8 424.7 131 425.35 137.65
M 413.9 5.1
Q 414.8 24.4 411.75 43.65 410.95 48.65 408.5 60.8 406.3 71.75 405.45 78 402.65 97.9 406.75 111.9 408.65 118.15 412.8 122 417.55 126.5 422.6 124.75 424.7 124 426.55 122 434.8 93.15 431.45 62.3 428.1 31.5 413.9 5.1 Z"/>

<path fill="#009FC3" stroke="none" d="
M 5.55 81.7
Q 2.45 77.9 0.5 73.4 -1.85 98.6 6.45 123.3 14.7 148 31.85 166.65 40.15 175.75 49.5 182.05 59.7 188.95 70.5 192 74.55 193.15 78.65 193.75 81.9 192.7 84.7 191.5 93.85 187.5 98.85 180.9 103.55 174.65 104.9 165.75 106.05 158 104.6 149 101.5 129.7 88.75 115 75.3 99.5 57.25 96.9 54.55 96.5 49.2 96.4 49.15 96.65 49.1 96.9 48.25 102.55 46.05 109.15 44.55 113.65 41.5 121 40.25 124.1 39.35 125.7 37.95 128.2 36.1 129.65 33.45 131.8 29.8 131.9 26.15 131.95 23.35 129.9 21.8 128.65 20.35 126.45 19.6 125.3 18 122.4 11.4 109.5 9.1 101.9 6.9 94.4 5.55 81.7
M 413.9 5.1
Q 412.5 2.55 411 0 410.75 13.65 406.3 25.35 401.8 37.05 397.75 42.7 397.7 40.75 397 38.7 395.4 34 391.25 31.4 387.5 29 382.45 28.55 377.95 28.2 373 29.4 360.3 32.5 349.1 44.15 340.95 52.65 331.85 67.9 290.95 136.65 310.1 182.9 316.85 199.1 328.6 206.25 336.65 211.15 347.1 211.65 356.75 212.1 366.5 208.75 382.3 203.2 398.85 187 416.35 170.3 429.4 149.5 442.35 128.8 449.85 105.65 449.25 105.95 448.7 106.3 442.6 117.65 434.85 128.4 432.1 131.9 430.55 133.55 427.95 136.2 425.35 137.65 424.7 131 427.7 123.8 426.2 125.6 424.85 127.5 425.75 124.75 426.55 122 424.7 124 422.6 124.75 417.55 126.5 412.8 122 408.65 118.15 406.75 111.9 402.65 97.9 405.45 78 406.3 71.75 408.5 60.8 410.95 48.65 411.75 43.65 414.8 24.4 413.9 5.1 Z"/>
</g>

<g id="headbase_0_Layer0_0_FILL">
<path fill="#E05634" stroke="none" d="
M 336 196.4
Q 335.45 145 327.75 85.35 283.95 -22.45 171.2 8.4 60.6 -23.9 14.75 67.8 -2.85 143.8 0.55 226.75 2.7 253.25 23.15 264.4 72.95 289.5 122.7 283.65 244 297.85 312.65 261.95 336.55 247.75 336 196.4 Z"/>
</g>

<g id="hair_0_Layer0_0_FILL">
<path fill="#00CCCC" stroke="none" d="
M 50.25 167.45
Q 52 152.35 55 139.55 28.85 172.7 14.6 213.45 -0.45 256.3 0 300.85 3.6 301.1 7.6 300.35 12.3 299.5 16.4 297.55 21.7 295 26 290.6 29.05 287.5 31.55 283.65 34.6 278.9 36.9 273.05 40.2 264.6 42.25 252.7 45.1 236.65 46.9 210.2 49.15 176.9 50.25 167.45
M 270.25 84.85
Q 263.85 78.45 248.8 65.95 234.4 54 227.5 46.85 216.55 35.65 210.65 23.55 204.8 11.55 204.65 0 193.7 22.75 171.4 46.7 162.65 56.1 149.15 68.85 133.8 83.15 126.25 90.35 115.1 100.95 106.15 110.9 100.15 119.65 96 127.95 87.45 145.25 86.05 162.95 84.45 182.35 92 197.95 96.95 208.35 104.25 209.6 110.7 210.6 116.35 204.55 120.65 200 124.15 191.85
L 188.75 40.2
Q 171.35 84.8 164.3 105.45 151.65 142.15 145.5 172.35 142.8 185.25 142.6 194.15 142.3 206.25 146.15 215.35 150.65 225.9 160.9 231.35 171.65 237.05 181.25 232.7 187.65 229.75 191.95 222.75 195.6 216.85 197.4 208.7 198.25 204.8 199.55 193.85 200.65 184.45 202.25 179.1 201.1 197.7 204 214.95 205 222.05 208.25 224.45 211.05 226.35 215 225.75 218.35 225.25 221.9 223.1 236.55 214.2 243.3 194.6 248.75 178.7 248.65 157.1 248.5 129.15 242.6 102.3 251.35 134.1 257.5 165.95 259.15 174.65 261.95 179.65 265.75 186.6 271.9 187.35 277.15 188.05 282.1 183.9 286.25 180.45 289.15 174.6 298.7 155.7 295.7 129.1 295 122.85 293.35 115.05 292.95 114.35 292.55 113.65 283.2 97.8 270.25 84.85
M 327.9 216.7
Q 333.05 233.25 340.9 244.7 342.3 246.75 343.8 248.65 352.3 259.35 364.25 265.35 372.4 269.4 380.35 270.3 381.4 262.35 381 253.8 380.5 243.35 377.9 231.95 363.1 167.9 304.8 107.15 310.95 137.65 320.75 186.35 324.7 206.25 327.9 216.7 Z"/>

<path fill="#009FC3" stroke="none" d="
M 340.9 244.7
Q 333.05 233.25 327.9 216.7 324.7 206.25 320.75 186.35 310.95 137.65 304.8 107.15 302.5 104.75 300.15 102.35
L 300.9 130.2
Q 297.6 122.45 293.35 115.05 295 122.85 295.7 129.1 298.7 155.7 289.15 174.6 286.25 180.45 282.1 183.9 277.15 188.05 271.9 187.35 265.75 186.6 261.95 179.65 259.15 174.65 257.5 165.95 251.35 134.1 242.6 102.3 248.5 129.15 248.65 157.1 248.75 178.7 243.3 194.6 236.55 214.2 221.9 223.1 218.35 225.25 215 225.75 211.05 226.35 208.25 224.45 205 222.05 204 214.95 201.1 197.7 202.25 179.1 200.65 184.45 199.55 193.85 198.25 204.8 197.4 208.7 195.6 216.85 191.95 222.75 187.65 229.75 181.25 232.7 171.65 237.05 160.9 231.35 150.65 225.9 146.15 215.35 142.3 206.25 142.6 194.15 142.8 185.25 145.5 172.35 151.65 142.15 164.3 105.45 171.35 84.8 188.75 40.2
L 124.15 191.85
Q 120.65 200 116.35 204.55 110.7 210.6 104.25 209.6 96.95 208.35 92 197.95 84.45 182.35 86.05 162.95 87.45 145.25 96 127.95 100.15 119.65 106.15 110.9 93.35 125.05 84.9 137.85 75.5 152 70.2 166.05 66.25 154.95 59 134.6 56.95 137.05 55 139.55 52 152.35 50.25 167.45 49.15 176.9 46.9 210.2 45.1 236.65 42.25 252.7 40.2 264.6 36.9 273.05 34.6 278.9 31.55 283.65 29.05 287.5 26 290.6 21.7 295 16.4 297.55 12.3 299.5 7.6 300.35 3.6 301.1 0 300.85 0 301.75 0 302.7 0.15 311.65 1.8 317.4 1.8 317.5 1.85 317.55 4.1 325.2 9.4 328.95 13.05 331.65 18.55 332.55 22.55 333.2 28.75 332.95 56.35 332.15 83.1 324.95 94.3 318.7 104.4 309.55 123.55 292.25 132.75 270.15 134.05 266.95 135.2 263.65 148.85 270 164.6 273.6 178.7 276.8 194.5 277.8 211.4 273.6 223.4 269.75 226.75 268.7 230 267.55 240.9 263.8 250.35 259.5 251.5 261.1 252.6 262.65 262.45 276.2 268.7 283.45 281.55 298.2 294.9 306.45 310.6 316.15 328.3 317.05 347.4 318 360.75 307.85 375.95 296.3 379.85 273.7 380.15 272 380.35 270.3 372.4 269.4 364.25 265.35 352.3 259.35 343.8 248.65 342.3 246.75 340.9 244.7 Z"/>
</g>

<g id="eye_0_Layer0_0_FILL">
<path fill="#4F2F26" stroke="none" d="
M 44.3 41.7
Q 51.45 34.2 60.8 32.45 37.1 28.45 12.7 51.35 10.4 51.95 8.55 52.25 27.85 100.6 69.55 102.1 70.65 99.85 73.1 98.3 70.05 98.9 66.7 98.9 53.6 98.9 44.3 89.05 35.05 79.25 35.05 65.4 35.05 51.55 44.3 41.7
M 98.35 65.4
Q 98.35 79.25 89.05 89.05 85.15 93.2 80.6 95.6 86.25 94.55 94.55 94.95 114.4 93.2 105.85 69.25 102.4 59.65 95.9 52.25 98.35 58.3 98.35 65.4 Z"/>

<path fill="#CCCCCC" stroke="none" d="
M 89.05 89.05
Q 98.35 79.25 98.35 65.4 98.35 58.3 95.9 52.25 86.15 41.1 69.4 34.8 65.1 33.15 60.8 32.45 51.45 34.2 44.3 41.7 35.05 51.55 35.05 65.4 35.05 79.25 44.3 89.05 53.6 98.9 66.7 98.9 70.05 98.9 73.1 98.3 75.95 96.45 80.6 95.6 85.15 93.2 89.05 89.05
M 89.55 67.85
Q 89.55 79.05 82.35 86.95 75.15 94.85 64.95 94.85 54.75 94.85 47.55 86.95 40.35 79.05 40.35 67.85 40.35 56.65 47.55 48.75 54.75 40.85 64.95 40.85 75.15 40.85 82.35 48.75 89.55 56.65 89.55 67.85 Z"/>

<path fill="#FFFFFF" stroke="none" d="
M 82.35 86.95
Q 89.55 79.05 89.55 67.85 89.55 56.65 82.35 48.75 75.15 40.85 64.95 40.85 54.75 40.85 47.55 48.75 40.35 56.65 40.35 67.85 40.35 79.05 47.55 86.95 54.75 94.85 64.95 94.85 75.15 94.85 82.35 86.95 Z"/>

<path fill="#00CCCC" stroke="none" d="
M 111.35 4.1
Q 94.9 7.25 81.3 2.85 33.65 -9.75 5.8 33.65 6.15 33.85 6.5 34 9.55 35.4 12.95 35.3 15.85 35.25 19.35 34.2 20.85 33.75 25.6 32.05 43.05 25.65 62.2 22.2 68.2 21.15 80.3 19.05 90.65 17 97.7 13.8 105.8 10.15 111.35 4.1
M 165.1 93.1
Q 170.55 94.25 178.4 95.15 160.85 82.95 155.9 66.5 138.45 28.55 106.2 21.2
L 92.1 27.45
Q 88.75 28.65 88.45 30.7 88.05 32.5 90.45 35.2 109.75 56.1 115.7 62.7 122.25 69.7 125.55 72.85 131.25 78.35 136.45 81.95 148 89.65 165.1 93.1 Z"/>

<path fill="#009FC3" stroke="none" d="
M 178.4 95.15
Q 170.55 94.25 165.1 93.1 148 89.65 136.45 81.95 131.25 78.35 125.55 72.85 122.25 69.7 115.7 62.7 109.75 56.1 90.45 35.2 88.05 32.5 88.45 30.7 88.75 28.65 92.1 27.45
L 106.2 21.2
Q 105.85 21.1 105.55 21.05 114.35 14.45 116.9 2.85 114.1 3.6 111.35 4.1 105.8 10.15 97.7 13.8 90.65 17 80.3 19.05 68.2 21.15 62.2 22.2 43.05 25.65 25.6 32.05 20.85 33.75 19.35 34.2 15.85 35.25 12.95 35.3 9.55 35.4 6.5 34 6.15 33.85 5.8 33.65 3.5 37.2 1.35 41.15 -3.35 53.9 8.55 52.25 10.4 51.95 12.7 51.35 37.1 28.45 60.8 32.45 65.1 33.15 69.4 34.8 86.15 41.1 95.9 52.25 102.4 59.65 105.85 69.25 114.4 93.2 94.55 94.95 86.25 94.55 80.6 95.6 77.05 97.45 73.1 98.3 70.65 99.85 69.55 102.1
L 79 107.45
Q 115.45 102.8 126.75 117.65 131.85 110.45 126.75 101 157.4 104.5 179.75 96.05 179.05 95.6 178.4 95.15 Z"/>
</g>

<g id="lowerlip_0_Layer0_0_FILL">
<path fill="#FF9900" stroke="none" d="
M 253.25 98.6
L 269.1 66.05
Q 282.85 42.9 288.6 28 290.05 16.55 281.2 29.4 268.55 57.2 250.2 82.15 244.6 89.8 240.15 94.45 234.15 100.75 227.95 104.4 218 110.4 203.5 112.1 194.35 113.15 177.2 112.65 150.3 111.8 96.3 110.3 82.75 109.9 75.65 108.75 64.35 106.85 56.55 101.9 49.75 97.65 43.8 89.75 39.8 84.5 34.2 74.55 22.35 53.15 12.3 31.05 4.6 17.75 6.15 29.1 15.55 53 39.2 94.3 51.4 118.2 77.5 119.2 144.25 129.7 216.35 119.2 243.6 113.95 253.25 98.6 Z"/>

<path fill="#FF781F" stroke="none" d="
M 288.6 28
Q 295.2 10.75 291.2 4.45 290.1 2.75 288.25 1.85
L 245.15 71.8
Q 233.1 98.75 203 100.05 155.15 93.95 93.65 97.6 76.65 98.75 58.85 88.05 28.2087890625 46.3625 2.95 3.5 1.9279296875 1.7619140625 0.9 0 0.4 1.05 0.2 2.45 -1.2 10.45 6.15 29.1 4.6 17.75 12.3 31.05 22.35 53.15 34.2 74.55 39.8 84.5 43.8 89.75 49.75 97.65 56.55 101.9 64.35 106.85 75.65 108.75 82.75 109.9 96.3 110.3 150.3 111.8 177.2 112.65 194.35 113.15 203.5 112.1 218 110.4 227.95 104.4 234.15 100.75 240.15 94.45 244.6 89.8 250.2 82.15 268.55 57.2 281.2 29.4 290.05 16.55 288.6 28 Z"/>

<path fill="#692509" stroke="none" d="
M 205.25 -29.95
Q 141.1845703125 -40.8412109375 79.35 -30 33.7626953125 -15.112109375 2.95 3.5 28.2087890625 46.3625 58.85 88.05 76.65 98.75 93.65 97.6 155.15 93.95 203 100.05 233.1 98.75 245.15 71.8
L 288.25 1.85
Q 246.75 -22.091015625 205.25 -29.95 Z"/>
</g>

<g id="teeth_0_Layer0_0_FILL">
<path fill="#FFFFFF" stroke="none" d="
M 148.65 14.65
Q 130.95 71.35 119.65 129.25 149 128.45 178.35 131.7 165.05 72.7 148.65 14.65
M 148.35 4.95
L 71.75 15.85
Q 90.5 66.95 116.75 114.9 125.35 57.35 148.35 4.95
M 83.55 131.7
Q 98.05 130.1 112.55 129.5 84.2 85.35 73.85 32.35 63 80.85 68.75 129.35 75.95 131.6 83.55 131.7
M 71.75 15.85
Q 72.15 14.75 72.55 13.65 7 58.5 44.95 111.7 48.2 116.05 51.6 120.4 57.2 124.55 63.1 127.2 52 71.5 71.75 15.85
M 218 124.9
Q 221.6 121 225.05 117 228.85 77 216.05 35.6 212.05 93.8 182.45 132.15 206.45 134.35 218 124.9
M 216.05 12.65
L 216.05 25.35
Q 232.3 61.8 231.55 107.7 251.75 72.55 246.35 32.7
L 216.05 12.65
M 215.2 20.8
Q 215.7 16.75 216.05 12.65
L 148.35 4.95 151.55 10.75
Q 171.45 67.5 180.9 122.35 208.5 77.15 215.2 20.8 Z"/>

<path fill="#CCCCCC" stroke="none" d="
M 216.05 25.35
L 215.2 20.8
Q 208.5 77.15 180.9 122.35 171.45 67.5 151.55 10.75
L 148.35 4.95
Q 125.35 57.35 116.75 114.9 90.5 66.95 71.75 15.85 52 71.5 63.1 127.2 65.9 128.45 68.75 129.35 63 80.85 73.85 32.35 84.2 85.35 112.55 129.5 116.1 129.3 119.65 129.25 130.95 71.35 148.65 14.65 165.05 72.7 178.35 131.7 180.45 131.95 182.45 132.15 212.05 93.8 216.05 35.6 228.85 77 225.05 117 226.55 115.25 228 113.5 255.95 80.2 273.9 41.1 218.55 -3.55 144.15 0.75 46.3 -5.6 0 42.7 19.3 77.7 44.95 111.7 7 58.5 72.55 13.65 72.15 14.75 71.75 15.85
L 148.35 4.95 216.05 12.65 246.35 32.7
Q 251.75 72.55 231.55 107.7 232.3 61.8 216.05 25.35 Z"/>
</g>

<g id="upperlip_0_Layer0_0_FILL">
<path fill="#FF781F" stroke="none" d="
M 14.4 67.05
L 18.3 55.2
Q 13.3 54.35 9.65 54.95 15.6 59.65 14.4 67.05
M 288.35 64
Q 284.15 57.75 287.8 52.55 284.75 52.65 281 53.85
L 288.35 64
M 280.25 72.65
Q 277.2 74.95 275.6 76 272.9 77.75 270.6 77.5 268.05 77.35 265.75 75 264.55 73.8 255.5 63.6 246.45 53.4 234 45.35 221.5 37.3 208.3 34.7 203.55 33.75 198.7 33 181.15 22.25 179.9 1.65 163.15 -0.35 144.4 0.1 131.95 0.4 120.55 1.65 104.55 30.4 95.1 35.7 81.15 40.1 68.5 51.25 58.25 62.9 52.85 68 43.35 77.05 34.1 76.65 30.85 76.5 25 74.65 18.85 72.75 15.85 72.5 10.95 72.1 6.9 75.15 2.55 78.4 3.5 82.85 6.6 86.8 12.1 79.85 17.2 74.15 22.3 79.85 40.5 92.35 56.95 76.45
L 68.7 62.8
Q 80.7 48.75 96.75 46 153.4 37.1 218 47.2 231.75 49.8 242.15 61.4
L 258.6 80.75
Q 272.3 94.7 285.7 75.8 290.05 71.1 292.8 74.85 299.05 81.5 300.1 73.7 297 71.35 292.75 70.5 285.75 69.1 280.25 72.65 Z"/>

<path fill="#FF9900" stroke="none" d="
M 180.75 -29.2
Q 141.637109375 -43.9640625 101.55 -25.05 78.4837890625 -3.6619140625 82.7 9.2 39.5716796875 22.5240234375 18.3 55.2
L 14.4 67.05
Q 15.6 59.65 9.65 54.95 -1.3 56.65 0.15 71.5 1.2 80 3.5 82.85 2.55 78.4 6.9 75.15 10.95 72.1 15.85 72.5 18.85 72.75 25 74.65 30.85 76.5 34.1 76.65 43.35 77.05 52.85 68 58.25 62.9 68.5 51.25 81.15 40.1 95.1 35.7 104.55 30.4 120.55 1.65 131.95 0.4 144.4 0.1 163.15 -0.35 179.9 1.65 181.15 22.25 198.7 33 203.55 33.75 208.3 34.7 221.5 37.3 234 45.35 246.45 53.4 255.5 63.6 264.55 73.8 265.75 75 268.05 77.35 270.6 77.5 272.9 77.75 275.6 76 277.2 74.95 280.25 72.65 285.75 69.1 292.75 70.5 297 71.35 300.1 73.7 300.35 71.6 300.25 68.45 299.4 52.25 287.8 52.55 284.15 57.75 288.35 64
L 281 53.85
Q 253.38828125 19.4416015625 208.1 7.05 211.559375 -6.6486328125 180.75 -29.2 Z"/>
</g>

<g id="nose_0_Layer0_0_FILL">
<path fill="#00CCCC" stroke="none" d="
M 114.95 17.6
Q 114.6994140625 16.0509765625 114.2 14.5 60.870703125 -15.47734375 4.1 16.6 5.020703125 21.3501953125 8 25.55 10.1693359375 28.6451171875 12.95 30.8 17.7509765625 32.9365234375 20.65 30.05 20.86015625 29.84296875 21.05 29.65 21.7076171875 28.994140625 22.5 28.4 25.35 26.2 29 25.75 32.35 25.3 35.85 26.35 39.2 27.4 42.1 29.6 42.9 30.2 45.9 32.9 48.2 34.95 49.85 35.85 52.2 37 55.4 37.45 57.45 37.75 61.35 37.85 66.2 37.85 68.55 37.5 72.5 36.85 75 34.85 76.25 33.9 78 31.75 80 29.3 80.85 28.5 83.95 25.7 88.45 25.2 92.95 24.7 96.6 26.85 97.25 27.2 99.7 29.05 101.55 30.4 102.85 30.85 106.25 31.95 109.7 30 113 28.1 114.35 24.6 115.5 21.4 114.95 17.6 Z"/>

<path fill="#009FC3" stroke="none" d="
M 121.5 23.7
Q 121.5 23.65 121.55 23.6
L 121.55 23.3
Q 121.85 19.7 119.2 17.45 116.698046875 15.901953125 114.2 14.5 114.6994140625 16.0509765625 114.95 17.6 115.5 21.4 114.35 24.6 113 28.1 109.7 30 106.25 31.95 102.85 30.85 101.55 30.4 99.7 29.05 97.25 27.2 96.6 26.85 92.95 24.7 88.45 25.2 83.95 25.7 80.85 28.5 80 29.3 78 31.75 76.25 33.9 75 34.85 72.5 36.85 68.55 37.5 66.2 37.85 61.35 37.85 57.45 37.75 55.4 37.45 52.2 37 49.85 35.85 48.2 34.95 45.9 32.9 42.9 30.2 42.1 29.6 39.2 27.4 35.85 26.35 32.35 25.3 29 25.75 25.35 26.2 22.5 28.4 21.7076171875 28.994140625 21.05 29.65 20.86015625 29.84296875 20.65 30.05 17.7509765625 32.9365234375 12.95 30.8 10.1693359375 28.6451171875 8 25.55 5.020703125 21.3501953125 4.1 16.6 3.764453125 16.8412109375 3.4 17.05 -0.1 19.35 0 23.05 0 23.6 0.1 24.2 1.6 37.95 17.35 44.7
L 17.55 44.75
Q 20.4 45.9 21.7 43.35 28.8 24.15 36.95 42.85 38.7 46.05 41.8 46.9 42.15 46.95 42.5 47.05 64.85 51.85 88.05 46 92.15 22.9 102 40.1 102.15 40.35 102.3 40.65 103.8 42.85 108.3 41.65 120.15 35.6 121.5 23.7 Z"/>
</g>
</defs>

<g transform="matrix( 1, 0, 0, 1, 0,0) ">
<use xlink:href="#Layer16_0_FILL"/>
</g>

<g transform="matrix( 1, 0, 0, 1, 0,0) ">
<use xlink:href="#Layer15_0_FILL"/>
</g>

<g transform="matrix( 1, 0, 0, 1, 0,0) ">
<use xlink:href="#Layer14_0_FILL"/>
</g>

<g transform="matrix( 1, 0, 0, 1, 0,0) ">
<use xlink:href="#Layer13_0_FILL"/>
</g>

<g transform="matrix( 1, 0, 0, 1, 315.7,370.6) ">
<g transform="matrix( 1, 0, 0, 1, 0,0) ">
<use xlink:href="#breast_0_Layer2_0_FILL"/>
</g>

<g transform="matrix( 1, 0, 0, 1, 0,0) ">
<use xlink:href="#breast_0_Layer1_0_FILL"/>
</g>
</g>

<g transform="matrix( 1, 0, 0, 1, 279.75,548.95) ">
<g transform="matrix( 1, 0, 0, 1, 0,0) ">
<use xlink:href="#belly_0_Layer1_0_FILL"/>
</g>

<g transform="matrix( 1, 0, 0, 1, 0,0) ">
<use xlink:href="#belly_0_Layer0_0_FILL"/>
</g>
</g>

<g transform="matrix( 1, 0, 0, 1, 399.15,444.3) ">
<g transform="matrix( 1, 0, 0, 1, 0,0) ">
<use xlink:href="#chesthair_0_Layer0_0_FILL"/>
</g>
</g>

<g transform="matrix( -0.9962615966796875, 0.0863800048828125, 0.0863800048828125, 0.9962615966796875, 998.1,582.3) ">
<g transform="matrix( 1, 0, 0, 1, 0,0) ">
<use xlink:href="#hand1_0_Layer1_0_FILL"/>
</g>

<g transform="matrix( 0.9915008544921875, 0.130096435546875, -0.130096435546875, 0.9915008544921875, 43.05,-18.25) ">
<use xlink:href="#hand1_0_Layer0_0_FILL"/>
</g>
</g>

<g transform="matrix( 0.99725341796875, 0.0740509033203125, -0.0740509033203125, 0.99725341796875, 59.55,588.55) ">
<g transform="matrix( 1, 0, 0, 1, 0,0) ">
<use xlink:href="#hand1_0_Layer1_0_FILL"/>
</g>

<g transform="matrix( 0.9915008544921875, 0.130096435546875, -0.130096435546875, 0.9915008544921875, 43.05,-18.25) ">
<use xlink:href="#hand1_0_Layer0_0_FILL"/>
</g>
</g>

<g transform="matrix( 1, 0, 0, 1, 297.15,216.7) ">
<g transform="matrix( 1, 0, 0, 1, 0,0) ">
<use xlink:href="#backhair_0_Layer0_0_FILL"/>
</g>
</g>

<g transform="matrix( 1, 0, 0, 1, 353.2,180.55) ">
<g transform="matrix( 1, 0, 0, 1, 0,0) ">
<use xlink:href="#headbase_0_Layer0_0_FILL"/>
</g>
</g>

<g transform="matrix( 1, 0, 0, 1, 319,0) ">
<g transform="matrix( 1, 0, 0, 1, 0,0) ">
<use xlink:href="#hair_0_Layer0_0_FILL"/>
</g>
</g>

<g transform="matrix( 1, 0, 0, 1, 549.3,241.65) ">
<g transform="matrix( 1, 0, 0, 1, 0,0) ">
<use xlink:href="#eye_0_Layer0_0_FILL"/>
</g>
</g>

<g transform="matrix( -1, 0, 0, 1, 482.45,241.65) ">
<g transform="matrix( 1, 0, 0, 1, 0,0) ">
<use xlink:href="#eye_0_Layer0_0_FILL"/>
</g>
</g>

<g transform="matrix( 1, 0, 0, 1, 375.7,376.8) ">
<g transform="matrix( 1, 0, 0, 1, 0,0) ">
<use xlink:href="#lowerlip_0_Layer0_0_FILL"/>
</g>
</g>

<g transform="matrix( 1, 0, 0, 1, 384.9,340.05) ">
<g transform="matrix( 1, 0, 0, 1, 0,0) ">
<use xlink:href="#teeth_0_Layer0_0_FILL"/>
</g>
</g>

<g transform="matrix( 1, 0, 0, 1, 369.15,308.95) ">
<g transform="matrix( 1, 0, 0, 1, 0,0) ">
<use xlink:href="#upperlip_0_Layer0_0_FILL"/>
</g>
</g>

<g transform="matrix( 1, 0, 0, 1, 453.8,293.95) ">
<g transform="matrix( 1, 0, 0, 1, 0,0) ">
<use xlink:href="#nose_0_Layer0_0_FILL"/>
</g>
</g>
</svg>
